<svg xmlns="http://www.w3.org/2000/svg" viewBox="1405 57.869 10.881 14.131">
  <defs>
    <style>
      .cls-1{fill: #cfad6c!important;}
    </style>
  </defs>
  <path id="Tracé_121_1_" class="cls-1" d="M1.2,4.239V5.723H1.13A1.116,1.116,0,0,0,0,6.854V13a1.116,1.116,0,0,0,1.13,1.13H9.75A1.116,1.116,0,0,0,10.881,13V6.854a1.116,1.116,0,0,0-1.13-1.13h0V4.239a4.275,4.275,0,0,0-8.549,0Zm4.875,5.935c-.071.071-.141.141-.141.212v1.342h0a.387.387,0,0,1-.283.424.49.49,0,0,1-.707-.212s0-.071,0-.141h0V10.457a.26.26,0,0,0-.071-.212,1.014,1.014,0,0,1-.353-1.272,1.065,1.065,0,0,1,1.413-.565,1.089,1.089,0,0,1,.636.919A1.159,1.159,0,0,1,6.076,10.174ZM3.109,4.239a2.367,2.367,0,1,1,4.734-.071V5.723H3.109Z" transform="translate(1405 57.869)"/>
</svg>
