<svg xmlns="http://www.w3.org/2000/svg" viewBox="774.6 1536.6 12.4 12.4">
  <defs>
    <style>.cls-1{fill: #d0006f!important;} </style>
  </defs>
  <g id="Symbole_1_1" data-name="Symbole 1 – 1" transform="translate(256 34)">
    <path id="Tracé_57" data-name="Tracé 57" class="cls-1" d="M6.2,0A6.236,6.236,0,1,1,0,6.23,6.336,6.336,0,0,1,1.806,1.806,6.264,6.264,0,0,1,6.2,0ZM9.39,5.869a.331.331,0,1,1,0,.662H6.23a.331.331,0,0,1-.3-.181h0V2.167a.331.331,0,0,1,.662,0v3.7Zm.722-3.582A5.527,5.527,0,0,0,6.2.662,5.4,5.4,0,0,0,2.287,2.287,5.538,5.538,0,0,0,6.2,11.738a5.456,5.456,0,0,0,3.913-1.625A5.581,5.581,0,0,0,11.738,6.2a5.508,5.508,0,0,0-1.625-3.913Z" transform="translate(518.6 1502.6)"/>
  </g>
</svg>
